<svg id="Layer_2" xmlns="http://www.w3.org/2000/svg" viewBox="0 0 3275.91 1129.92"><defs><style>.cls-1{fill:#ff9e18}.cls-2{fill:#0c78be}</style></defs><g id="Layer_1-2"><path class="cls-1" d="M393.55 207.84s55.4-105.32-.03-207.84c0 0-55.13 88.16.03 207.84ZM299.28 235.7S288.36 117.22 186.04 61.44c0 0 1.82 103.98 113.24 174.26ZM235.39 310.5s-73.7-93.46-189.9-84.52c0 0 58.15 86.23 189.9 84.52ZM222.54 407.99s-112.73-38.26-205.28 32.56c0 0 95.71 40.63 205.28-32.56ZM488.04 235.7s10.88-118.48 113.27-174.26c0 0-1.86 103.98-113.27 174.26ZM551.95 310.5s73.66-93.46 189.86-84.52c0 0-58.13 86.23-189.86 84.52ZM564.76 407.99s112.72-38.26 205.31 32.56c0 0-95.73 40.63-205.31-32.56Z"/><path class="cls-2" d="M408.3 1084.1H377l-39.29-588.47h109.88L408.3 1084.1zM534.7 626.63c0 44.78 32.95 65.2 68.61 80.55l21.21 8.97c24.86 10.34 51.37 23.98 51.37 55.81s-23.71 57.23-53.94 57.23c-16.06 0-30.81-5.98-41.48-16.77-10.08-10.2-15.49-23.98-15.32-38.81l.04-3.46-44.71 9.39.34 2.59c6.82 51.33 47.96 88.52 97.9 88.52 57.65 0 101.16-42.39 101.16-98.69s-39.51-80.12-78.15-95.25l-22.02-8.61c-27.67-10.58-41.09-24.14-41.09-41.48 0-25.26 25.26-40.87 48.65-40.87 21.39 0 35.46 8.25 46.99 27.58l1.42 2.4L711 594.59l-1.28-2.39c-17.39-30.95-46.4-47.98-81.64-47.98-45.31 0-93.39 28.88-93.39 82.4ZM151.27 533.79 0 864.13h47.34s33.69-74.02 35.1-77.14h137.68c1.43 3.13 35.1 77.14 35.1 77.14h47.37L151.27 533.78Zm-50.41 212.55c3.05-6.98 45.94-104.6 50.41-114.82 4.48 10.22 47.37 107.83 50.43 114.82H100.86Z"/><g><path class="cls-2" d="M585.07 979.52c-4.76-8.01-10.97-12.14-20.7-12.14-10.28 0-21.55 7.02-21.55 18.33 0 10.06 9.89 15.4 17.95 18.5l9.25 3.58c18.33 7.18 31.97 17.25 31.97 38.83 0 23.41-18.12 40.2-41.22 40.2-20.87 0-37.08-15.4-39.86-36.12l16.24-3.42c-.13 14.19 11.14 24.46 25 24.46s23.77-11.64 23.77-25.12-11.13-19.87-22.22-24.48l-8.93-3.77c-14.7-6.31-28.03-14.73-28.03-32.66 0-20.87 18.5-33.33 37.98-33.33 14.32 0 26.16 7 33.17 19.47l-12.83 7.68ZM696.71 1084.07h-15.39v-12.47h-.31c-6.19 9.06-15.76 15.21-27.23 15.21-24.43 0-38.33-20.35-38.33-43.29s14.54-41.91 37.82-41.91c11.82 0 21.38 6.17 27.74 15.71h.31v-13.29h15.39v80.03Zm-14.52-40.01c0-15.6-9.41-28.75-25.99-28.75s-25.36 13.85-25.36 28.75 9.09 29.06 25.36 29.06 25.99-13.31 25.99-29.06ZM744.56 970.56c0 5.86-4.78 10.46-10.62 10.46s-10.58-4.6-10.58-10.46 4.79-10.75 10.58-10.75 10.62 4.82 10.62 10.75Zm-2.93 113.5h-15.34v-80.03h15.34v80.03ZM844.86 1082.51c0 27.54-7.88 47.41-39.04 47.41-22.2 0-38.28-13.68-38.62-36.25h15.39c0 14.35 9.95 22.58 23.97 22.58 18.98 0 22.87-13.05 22.87-29.43v-15.21h-.35c-6.13 9.06-15.85 15.21-27.19 15.21-24.65 0-38.32-20.35-38.32-43.29s14.52-41.91 37.64-41.91c12.02 0 21.56 6.17 27.87 16.04h.35v-13.62h15.42v78.47Zm-14.56-38.45c0-15.6-9.41-28.75-26.02-28.75s-25.29 13.85-25.29 28.75 9.09 29.06 25.29 29.06 26.02-13.31 26.02-29.06ZM945.75 1044.21c0 24.15-18.85 42.6-42.76 42.6s-42.77-18.45-42.77-42.6 18.79-42.6 42.77-42.6 42.76 18.48 42.76 42.6Zm-70.12 0c0 15.02 12.11 27.89 27.35 27.89s27.37-12.86 27.37-27.89-12.15-27.87-27.37-27.87-27.35 12.65-27.35 27.87ZM975.31 1014.81h.34c4.8-8.58 14.37-13.19 24.13-13.19 22.6 0 28.41 15.2 28.41 34.75v47.7h-15.4v-45.87c0-13.69-1.89-22.89-17.64-22.89-19.83 0-19.83 17.46-19.83 31.97v36.79h-15.41v-80.03h15.41v10.77Z"/></g><path class="cls-2" d="M463.07 372.06c0 38.41-31.17 69.59-69.65 69.59s-69.6-31.18-69.6-69.59 31.17-69.62 69.6-69.62 69.65 31.14 69.65 69.62Z"/><g><path class="cls-2" d="m1365.91 302.48 67.01 179.21h-40.91l-13.55-39.91h-67.01l-14.05 39.91h-39.66l67.77-179.21h40.41Zm2.26 109.93-22.59-65.76h-.5l-23.34 65.76h46.43ZM1580.25 468.01c-13.55 11.8-32.29 17.7-56.22 17.7s-43.04-5.86-56.35-17.57c-13.3-11.71-19.95-29.78-19.95-54.21V302.49h39.41v111.44c0 4.86.41 9.62 1.25 14.31.84 4.69 2.59 8.83 5.27 12.42 2.67 3.6 6.4 6.53 11.17 8.79 4.77 2.26 11.17 3.39 19.2 3.39 14.06 0 23.76-3.14 29.12-9.41 5.35-6.27 8.03-16.1 8.03-29.49V302.5h39.4v111.44c0 24.26-6.78 42.29-20.33 54.09ZM1664.58 437.52c2.17 4.18 5.06 7.57 8.66 10.16 3.6 2.6 7.82 4.52 12.67 5.77s9.87 1.88 15.06 1.88c3.51 0 7.28-.29 11.29-.88 4.02-.58 7.78-1.71 11.3-3.39 3.51-1.67 6.44-3.97 8.78-6.9 2.34-2.93 3.51-6.65 3.51-11.17 0-4.85-1.55-8.78-4.64-11.79-3.1-3.01-7.15-5.52-12.17-7.53-5.02-2.01-10.71-3.76-17.07-5.27a480.54 480.54 0 0 1-19.33-5.02c-6.69-1.67-13.22-3.72-19.58-6.15-6.36-2.42-12.05-5.56-17.07-9.41-5.02-3.85-9.08-8.66-12.17-14.43-3.1-5.78-4.64-12.76-4.64-20.96 0-9.2 1.96-17.19 5.9-23.97 3.93-6.78 9.07-12.42 15.43-16.94 6.36-4.52 13.55-7.86 21.59-10.04 8.03-2.17 16.06-3.26 24.09-3.26 9.37 0 18.36 1.05 26.98 3.14 8.62 2.09 16.27 5.48 22.96 10.17 6.69 4.69 12 10.67 15.94 17.95 3.93 7.28 5.9 16.11 5.9 26.48h-38.15c-.34-5.35-1.47-9.79-3.39-13.3-1.93-3.51-4.48-6.27-7.66-8.28-3.18-2.01-6.82-3.43-10.92-4.27-4.1-.83-8.58-1.25-13.43-1.25-3.18 0-6.36.34-9.54 1-3.18.67-6.07 1.84-8.66 3.51-2.6 1.67-4.73 3.76-6.4 6.28-1.67 2.51-2.51 5.69-2.51 9.54 0 3.51.67 6.36 2.01 8.53 1.34 2.18 3.97 4.18 7.91 6.02 3.93 1.84 9.37 3.68 16.31 5.52 6.94 1.84 16.02 4.18 27.23 7.03 3.35.67 7.99 1.88 13.93 3.64 5.94 1.76 11.83 4.56 17.69 8.41 5.85 3.85 10.92 9 15.18 15.44 4.27 6.44 6.4 14.68 6.4 24.72 0 8.2-1.59 15.81-4.77 22.84-3.18 7.03-7.91 13.1-14.18 18.2-6.27 5.11-14.05 9.08-23.34 11.92s-20.04 4.27-32.25 4.27c-9.88 0-19.45-1.22-28.74-3.64s-17.49-6.23-24.6-11.42c-7.11-5.18-12.76-11.8-16.94-19.83-4.18-8.03-6.19-17.57-6.03-28.61h38.15c0 6.02 1.09 11.13 3.26 15.31ZM1783.29 335.62v-33.13h146.83v33.13h-53.71V481.7h-39.4V335.62h-53.71ZM2047.33 302.48c8.03 0 15.27 1.3 21.71 3.89 6.44 2.59 11.96 6.15 16.56 10.67 4.6 4.52 8.12 9.75 10.54 15.69 2.42 5.94 3.64 12.34 3.64 19.2 0 10.54-2.22 19.66-6.65 27.36-4.44 7.7-11.67 13.55-21.71 17.57v.5c4.85 1.34 8.87 3.39 12.05 6.15 3.18 2.76 5.77 6.02 7.78 9.79 2.01 3.76 3.47 7.91 4.39 12.42.92 4.52 1.54 9.04 1.88 13.55.17 2.85.33 6.19.5 10.04.17 3.85.46 7.78.88 11.8.42 4.02 1.09 7.82 2.01 11.42.92 3.6 2.3 6.65 4.14 9.16h-39.41c-2.18-5.69-3.51-12.46-4.02-20.33-.5-7.86-1.25-15.39-2.26-22.59-1.34-9.37-4.19-16.23-8.53-20.58-4.35-4.35-11.46-6.52-21.33-6.52h-39.41v70.03h-39.41V302.49h96.63Zm-14.05 81.07c9.04 0 15.81-2.01 20.33-6.02 4.52-4.02 6.78-10.54 6.78-19.58s-2.26-15.02-6.78-18.95c-4.52-3.93-11.29-5.9-20.33-5.9h-43.17v50.45h43.17ZM2221.26 302.48l67.01 179.21h-40.91l-13.55-39.91h-67.02l-14.05 39.91h-39.66l67.77-179.21h40.41Zm2.26 109.93-22.59-65.76h-.5l-23.34 65.76h46.43ZM2343.24 302.48v146.08h87.34v33.13h-126.75V302.48h39.4ZM2492.07 302.48v179.21h-39.4V302.48h39.4ZM2616.06 302.48l67.01 179.21h-40.91l-13.55-39.91h-67.01l-14.05 39.91h-39.66l67.77-179.21h40.41Zm2.26 109.93-22.59-65.76h-.5l-23.34 65.76h46.43ZM2737.79 302.48l74.79 120.22h.5V302.48h36.89v179.21h-39.4l-74.54-119.97h-.5v119.97h-36.89V302.48h39.15ZM1315.96 603.67v179.21h-39.41V603.67h39.41ZM1389.75 603.67l74.8 120.22h.5V603.67h36.9v179.21h-39.4l-74.54-119.97h-.5v119.97h-36.9V603.67h39.15ZM1522.52 636.8v-33.13h146.83v33.13h-53.71v146.07h-39.41V636.8h-53.71ZM1823.95 603.67v33.13h-94.62v38.4h86.84v30.62h-86.84v43.92h96.63v33.13h-136.04V603.66h134.03ZM1949.2 603.67c8.03 0 15.27 1.3 21.71 3.89 6.44 2.6 11.96 6.15 16.57 10.67 4.6 4.52 8.11 9.75 10.54 15.69 2.42 5.94 3.64 12.34 3.64 19.2 0 10.54-2.22 19.66-6.65 27.36-4.44 7.7-11.67 13.55-21.71 17.57v.5c4.85 1.34 8.87 3.39 12.05 6.15 3.18 2.76 5.77 6.02 7.78 9.79 2.01 3.76 3.47 7.91 4.39 12.42.92 4.52 1.54 9.04 1.88 13.56.16 2.85.33 6.19.5 10.04.17 3.85.46 7.78.88 11.8.41 4.01 1.09 7.82 2.01 11.42.92 3.6 2.3 6.65 4.14 9.16h-39.41c-2.18-5.69-3.51-12.46-4.01-20.33-.5-7.86-1.25-15.39-2.26-22.59-1.34-9.37-4.18-16.23-8.53-20.58-4.35-4.35-11.46-6.53-21.33-6.53h-39.4v70.03h-39.41V603.68h96.63Zm-14.06 81.07c9.03 0 15.81-2.01 20.33-6.02 4.52-4.02 6.78-10.54 6.78-19.58s-2.26-15.02-6.78-18.95c-4.52-3.93-11.3-5.9-20.33-5.9h-43.17v50.45h43.17ZM2072.93 603.67l74.79 120.22h.5V603.67h36.89v179.21h-39.4l-74.54-119.97h-.5v119.97h-36.9V603.67h39.15ZM2309.11 603.67l67.01 179.21h-40.91l-13.55-39.91h-67.01l-14.06 39.91h-39.66l67.77-179.21h40.41Zm2.26 109.93-22.59-65.76h-.5l-23.34 65.76h46.43ZM2354.53 636.8v-33.13h146.83v33.13h-53.71v146.07h-39.4V636.8h-53.71ZM2561.35 603.67v179.21h-39.41V603.67h39.41ZM2594.23 656.75c4.02-11.46 9.79-21.46 17.32-29.99 7.53-8.53 16.77-15.22 27.73-20.08 10.96-4.85 23.3-7.28 37.02-7.28s26.27 2.43 37.15 7.28c10.87 4.86 20.08 11.54 27.61 20.08 7.53 8.54 13.3 18.54 17.32 29.99 4.01 11.46 6.02 23.89 6.02 37.27s-2.01 25.22-6.02 36.52c-4.02 11.3-9.79 21.13-17.32 29.49-7.53 8.37-16.73 14.93-27.61 19.7-10.88 4.77-23.26 7.15-37.15 7.15s-26.06-2.38-37.02-7.15c-10.96-4.77-20.21-11.33-27.73-19.7-7.53-8.36-13.3-18.2-17.32-29.49-4.01-11.29-6.02-23.47-6.02-36.52s2.01-25.81 6.02-37.27Zm36.02 59.23c1.76 7.12 4.56 13.51 8.41 19.2 3.85 5.69 8.87 10.25 15.06 13.68 6.19 3.43 13.72 5.15 22.59 5.15s16.4-1.71 22.59-5.15c6.19-3.43 11.21-7.99 15.06-13.68 3.85-5.69 6.65-12.08 8.41-19.2 1.76-7.11 2.63-14.43 2.63-21.96s-.88-15.47-2.63-22.84c-1.76-7.36-4.56-13.93-8.41-19.7-3.85-5.77-8.87-10.37-15.06-13.8-6.19-3.43-13.72-5.15-22.59-5.15s-16.4 1.72-22.59 5.15c-6.19 3.43-11.21 8.03-15.06 13.8-3.85 5.77-6.65 12.34-8.41 19.7-1.76 7.37-2.63 14.98-2.63 22.84s.88 14.85 2.63 21.96ZM2830.41 603.67l74.79 120.22h.5V603.67h36.9v179.21h-39.4l-74.55-119.97h-.5v119.97h-36.9V603.67h39.15ZM3066.58 603.67l67.01 179.21h-40.91l-13.55-39.91h-67.01l-14.06 39.91h-39.65l67.77-179.21h40.41Zm2.26 109.93-22.59-65.76h-.5l-23.34 65.76h46.43ZM3188.57 603.67v146.07h87.34v33.13h-126.75V603.66h39.41ZM1306.67 1039.89c2.17 4.18 5.06 7.57 8.66 10.16 3.6 2.6 7.82 4.52 12.68 5.77 4.85 1.26 9.87 1.88 15.06 1.88 3.51 0 7.28-.29 11.29-.88 4.02-.59 7.78-1.71 11.29-3.39 3.51-1.67 6.44-3.97 8.78-6.9 2.34-2.93 3.51-6.65 3.51-11.17 0-4.85-1.55-8.79-4.64-11.8-3.1-3.01-7.15-5.52-12.17-7.53-5.02-2.01-10.71-3.76-17.07-5.27a480.54 480.54 0 0 1-19.33-5.02c-6.69-1.67-13.22-3.72-19.58-6.15-6.36-2.42-12.05-5.56-17.07-9.41-5.02-3.85-9.08-8.66-12.17-14.43-3.1-5.77-4.64-12.76-4.64-20.96 0-9.2 1.96-17.19 5.9-23.97 3.93-6.78 9.08-12.43 15.44-16.94 6.36-4.52 13.55-7.86 21.59-10.04 8.03-2.17 16.06-3.27 24.09-3.27 9.37 0 18.36 1.05 26.98 3.14 8.62 2.09 16.27 5.48 22.97 10.16 6.69 4.69 12 10.67 15.94 17.95 3.93 7.28 5.9 16.11 5.9 26.48h-38.15c-.34-5.35-1.47-9.79-3.39-13.3-1.93-3.52-4.48-6.28-7.66-8.28-3.18-2.01-6.82-3.43-10.92-4.27-4.1-.84-8.58-1.26-13.43-1.26-3.18 0-6.36.34-9.54 1.01-3.18.67-6.07 1.84-8.66 3.51-2.6 1.68-4.73 3.77-6.4 6.28-1.67 2.51-2.51 5.69-2.51 9.54 0 3.51.67 6.36 2.01 8.53 1.34 2.18 3.97 4.18 7.91 6.02 3.93 1.85 9.37 3.68 16.31 5.52 6.94 1.84 16.02 4.19 27.23 7.03 3.35.67 7.99 1.88 13.93 3.64 5.94 1.76 11.84 4.56 17.69 8.41 5.86 3.85 10.92 9 15.19 15.44s6.4 14.68 6.4 24.72c0 8.2-1.59 15.81-4.77 22.84-3.18 7.03-7.91 13.1-14.18 18.2-6.27 5.11-14.06 9.08-23.34 11.92-9.29 2.84-20.04 4.27-32.25 4.27-9.87 0-19.45-1.21-28.74-3.64-9.29-2.42-17.49-6.23-24.6-11.42-7.11-5.19-12.76-11.8-16.94-19.83-4.18-8.03-6.19-17.57-6.02-28.61h38.15c0 6.02 1.09 11.13 3.26 15.31ZM1554.39 952.67c-2.34-3.77-5.27-7.07-8.78-9.91-3.52-2.84-7.49-5.06-11.92-6.65-4.43-1.59-9.08-2.38-13.93-2.38-8.87 0-16.4 1.72-22.59 5.15-6.19 3.43-11.21 8.03-15.06 13.8-3.85 5.77-6.65 12.34-8.41 19.7-1.75 7.37-2.63 14.98-2.63 22.84s.88 14.85 2.63 21.96c1.76 7.11 4.56 13.51 8.41 19.2 3.85 5.69 8.87 10.25 15.06 13.68 6.19 3.43 13.72 5.15 22.59 5.15 12.05 0 21.46-3.68 28.24-11.04 6.78-7.36 10.92-17.07 12.42-29.12h38.15c-1 11.21-3.6 21.33-7.78 30.37-4.19 9.04-9.71 16.73-16.57 23.09-6.86 6.36-14.89 11.21-24.09 14.56-9.2 3.35-19.33 5.02-30.37 5.02-13.72 0-26.06-2.38-37.02-7.15-10.96-4.77-20.21-11.33-27.73-19.7-7.53-8.37-13.3-18.2-17.32-29.49s-6.02-23.47-6.02-36.52 2.01-25.81 6.02-37.27c4.01-11.46 9.79-21.46 17.32-29.99 7.53-8.53 16.77-15.22 27.73-20.08 10.96-4.85 23.3-7.28 37.02-7.28 9.87 0 19.2 1.42 27.99 4.27 8.78 2.85 16.65 6.99 23.59 12.43 6.94 5.44 12.68 12.17 17.19 20.2 4.52 8.03 7.36 17.24 8.53 27.61h-38.15c-.67-4.52-2.18-8.66-4.52-12.42ZM1664.83 904.85v68.77h72.54v-68.77h39.4v179.21h-39.4v-77.3h-72.54v77.3h-39.4V904.85h39.4ZM1809.65 957.94c4.02-11.46 9.79-21.46 17.32-29.99 7.53-8.53 16.77-15.22 27.73-20.08 10.96-4.85 23.3-7.28 37.02-7.28s26.27 2.43 37.14 7.28c10.88 4.86 20.08 11.55 27.61 20.08s13.3 18.53 17.32 29.99c4.02 11.46 6.02 23.88 6.02 37.27s-2.01 25.22-6.02 36.52c-4.02 11.3-9.79 21.13-17.32 29.49-7.53 8.37-16.73 14.93-27.61 19.7-10.88 4.77-23.26 7.15-37.14 7.15s-26.06-2.38-37.02-7.15c-10.96-4.77-20.2-11.33-27.73-19.7-7.53-8.37-13.3-18.2-17.32-29.49s-6.02-23.47-6.02-36.52 2.01-25.81 6.02-37.27Zm36.02 59.23c1.75 7.11 4.55 13.51 8.41 19.2 3.85 5.69 8.87 10.25 15.06 13.68 6.19 3.43 13.72 5.15 22.59 5.15s16.4-1.71 22.59-5.15c6.19-3.42 11.21-7.99 15.06-13.68 3.85-5.69 6.65-12.09 8.41-19.2 1.76-7.11 2.63-14.43 2.63-21.96s-.88-15.48-2.63-22.84c-1.76-7.36-4.56-13.93-8.41-19.7-3.85-5.77-8.87-10.37-15.06-13.8-6.19-3.43-13.72-5.15-22.59-5.15s-16.4 1.72-22.59 5.15c-6.19 3.43-11.21 8.03-15.06 13.8-3.85 5.77-6.65 12.34-8.41 19.7-1.76 7.37-2.64 14.98-2.64 22.84s.88 14.85 2.64 21.96ZM2004.92 957.94c4.02-11.46 9.79-21.46 17.32-29.99 7.53-8.53 16.77-15.22 27.73-20.08 10.96-4.85 23.3-7.28 37.02-7.28s26.27 2.43 37.15 7.28c10.88 4.86 20.08 11.55 27.61 20.08 7.53 8.53 13.3 18.53 17.32 29.99 4.02 11.46 6.02 23.88 6.02 37.27s-2.01 25.22-6.02 36.52c-4.02 11.3-9.79 21.13-17.32 29.49-7.53 8.37-16.73 14.93-27.61 19.7-10.88 4.77-23.26 7.15-37.15 7.15s-26.06-2.38-37.02-7.15c-10.96-4.77-20.2-11.33-27.73-19.7-7.53-8.37-13.3-18.2-17.32-29.49s-6.02-23.47-6.02-36.52 2.01-25.81 6.02-37.27Zm36.02 59.23c1.76 7.11 4.56 13.51 8.41 19.2 3.85 5.69 8.87 10.25 15.06 13.68 6.19 3.43 13.72 5.15 22.59 5.15s16.4-1.71 22.59-5.15c6.19-3.42 11.21-7.99 15.06-13.68 3.85-5.69 6.65-12.09 8.41-19.2 1.76-7.11 2.63-14.43 2.63-21.96s-.88-15.48-2.63-22.84c-1.76-7.36-4.56-13.93-8.41-19.7-3.85-5.77-8.87-10.37-15.06-13.8-6.19-3.43-13.72-5.15-22.59-5.15s-16.4 1.72-22.59 5.15c-6.19 3.43-11.21 8.03-15.06 13.8-3.85 5.77-6.65 12.34-8.41 19.7-1.76 7.37-2.63 14.98-2.63 22.84s.88 14.85 2.63 21.96ZM2241.34 904.85v146.08h87.34v33.13h-126.75V904.85h39.41Z"/></g><path class="cls-1" d="M1134.12 298.22h17.66v789.86h-17.66z"/></g></svg>