<svg width="3276" height="1130" viewBox="0 0 3276 1130" fill="none" xmlns="http://www.w3.org/2000/svg">
<g clip-path="url(#clip0_1_46)">
<path d="M393.55 207.84C393.55 207.84 448.95 102.52 393.52 0C393.52 0 338.39 88.16 393.55 207.84ZM299.28 235.7C299.28 235.7 288.36 117.22 186.04 61.44C186.04 61.44 187.86 165.42 299.28 235.7ZM235.39 310.5C235.39 310.5 161.69 217.04 45.4898 225.98C45.4898 225.98 103.64 312.21 235.39 310.5ZM222.54 407.99C222.54 407.99 109.81 369.73 17.2598 440.55C17.2598 440.55 112.97 481.18 222.54 407.99ZM488.04 235.7C488.04 235.7 498.92 117.22 601.31 61.44C601.31 61.44 599.45 165.42 488.04 235.7ZM551.95 310.5C551.95 310.5 625.61 217.04 741.81 225.98C741.81 225.98 683.68 312.21 551.95 310.5ZM564.76 407.99C564.76 407.99 677.48 369.73 770.07 440.55C770.07 440.55 674.34 481.18 564.76 407.99Z" fill="white"/>
<path fill-rule="evenodd" clip-rule="evenodd" d="M408.331 1083.63H376.969L337.71 495.63H447.59L408.331 1083.63Z" fill="white"/>
<path d="M585.07 979.52C580.31 971.51 574.1 967.38 564.37 967.38C554.09 967.38 542.82 974.4 542.82 985.71C542.82 995.77 552.71 1001.11 560.77 1004.21L570.02 1007.79C588.35 1014.97 601.99 1025.04 601.99 1046.62C601.99 1070.03 583.87 1086.82 560.77 1086.82C539.9 1086.82 523.69 1071.42 520.91 1050.7L537.15 1047.28C537.02 1061.47 548.29 1071.74 562.15 1071.74C576.01 1071.74 585.92 1060.1 585.92 1046.62C585.92 1033.14 574.79 1026.75 563.7 1022.14L554.77 1018.37C540.07 1012.06 526.74 1003.64 526.74 985.71C526.74 964.84 545.24 952.38 564.72 952.38C579.04 952.38 590.88 959.38 597.89 971.85L585.06 979.53L585.07 979.52ZM696.71 1084.07H681.32V1071.6H681.01C674.82 1080.66 665.25 1086.81 653.78 1086.81C629.35 1086.81 615.45 1066.46 615.45 1043.52C615.45 1020.58 629.99 1001.61 653.27 1001.61C665.09 1001.61 674.65 1007.78 681.01 1017.32H681.32V1004.03H696.71V1084.06V1084.07ZM682.19 1044.06C682.19 1028.46 672.78 1015.31 656.2 1015.31C639.62 1015.31 630.84 1029.16 630.84 1044.06C630.84 1058.96 639.93 1073.12 656.2 1073.12C672.47 1073.12 682.19 1059.81 682.19 1044.06ZM744.56 970.56C744.56 976.42 739.78 981.02 733.94 981.02C728.1 981.02 723.36 976.42 723.36 970.56C723.36 964.7 728.15 959.81 733.94 959.81C739.73 959.81 744.56 964.63 744.56 970.56ZM741.63 1084.06H726.29V1004.03H741.63V1084.06ZM844.86 1082.51C844.86 1110.05 836.98 1129.92 805.82 1129.92C783.62 1129.92 767.54 1116.24 767.2 1093.67H782.59C782.59 1108.02 792.54 1116.25 806.56 1116.25C825.54 1116.25 829.43 1103.2 829.43 1086.82V1071.61H829.08C822.95 1080.67 813.23 1086.82 801.89 1086.82C777.24 1086.82 763.57 1066.47 763.57 1043.53C763.57 1020.59 778.09 1001.62 801.21 1001.62C813.23 1001.62 822.77 1007.79 829.08 1017.66H829.43V1004.04H844.85V1082.51H844.86ZM830.3 1044.06C830.3 1028.46 820.89 1015.31 804.28 1015.31C787.67 1015.31 778.99 1029.16 778.99 1044.06C778.99 1058.96 788.08 1073.12 804.28 1073.12C820.48 1073.12 830.3 1059.81 830.3 1044.06ZM945.75 1044.21C945.75 1068.36 926.9 1086.81 902.99 1086.81C879.08 1086.81 860.22 1068.36 860.22 1044.21C860.22 1020.06 879.01 1001.61 902.99 1001.61C926.97 1001.61 945.75 1020.09 945.75 1044.21ZM875.63 1044.21C875.63 1059.23 887.74 1072.1 902.98 1072.1C918.22 1072.1 930.35 1059.24 930.35 1044.21C930.35 1029.18 918.2 1016.34 902.98 1016.34C887.76 1016.34 875.63 1028.99 875.63 1044.21ZM975.31 1014.81H975.65C980.45 1006.23 990.02 1001.62 999.78 1001.62C1022.38 1001.62 1028.19 1016.82 1028.19 1036.37V1084.07H1012.79V1038.2C1012.79 1024.51 1010.9 1015.31 995.15 1015.31C975.32 1015.31 975.32 1032.77 975.32 1047.28V1084.07H959.91V1004.04H975.32V1014.81H975.31Z" fill="white"/>
<path d="M463.07 372.06C463.07 410.47 431.9 441.65 393.42 441.65C354.94 441.65 323.82 410.47 323.82 372.06C323.82 333.65 354.99 302.44 393.42 302.44C431.85 302.44 463.07 333.58 463.07 372.06Z" fill="white"/>
<path d="M1134.12 298.22H1151.78V1088.08H1134.12V298.22Z" fill="white"/>
<path d="M704.156 637.787C702.565 623.668 696.003 612.73 684.469 604.974C672.935 597.119 658.418 593.192 640.918 593.192C628.389 593.192 617.551 595.18 608.403 599.158C599.256 603.035 592.146 608.405 587.075 615.266C582.104 622.027 579.618 629.733 579.618 638.384C579.618 645.642 581.308 651.906 584.689 657.176C588.169 662.446 592.693 666.871 598.261 670.45C603.929 673.93 609.994 676.864 616.457 679.25C622.92 681.537 629.135 683.426 635.101 684.918L664.93 692.673C674.675 695.06 684.668 698.291 694.909 702.368C705.151 706.445 714.646 711.814 723.396 718.476C732.146 725.138 739.206 733.391 744.575 743.234C750.044 753.078 752.778 764.861 752.778 778.582C752.778 795.884 748.304 811.246 739.355 824.669C730.506 838.092 717.629 848.682 700.726 856.438C683.922 864.193 663.588 868.071 639.724 868.071C616.855 868.071 597.068 864.442 580.364 857.183C563.659 849.925 550.584 839.634 541.138 826.31C531.692 812.886 526.472 796.977 525.477 778.582H571.713C572.608 789.619 576.188 798.817 582.452 806.175C588.815 813.433 596.919 818.852 606.763 822.432C616.706 825.912 627.594 827.652 639.426 827.652C652.452 827.652 664.036 825.614 674.178 821.537C684.419 817.361 692.473 811.594 698.339 804.236C704.206 796.778 707.139 788.078 707.139 778.135C707.139 769.087 704.554 761.679 699.384 755.912C694.313 750.145 687.402 745.372 678.652 741.594C670.001 737.815 660.207 734.484 649.27 731.601L613.176 721.757C588.716 715.095 569.327 705.301 555.009 692.375C540.79 679.449 533.68 662.347 533.68 641.068C533.68 623.469 538.453 608.107 547.999 594.982C557.544 581.857 570.47 571.665 586.777 564.406C603.084 557.048 621.479 553.369 641.962 553.369C662.643 553.369 680.889 556.999 696.699 564.257C712.608 571.516 725.136 581.509 734.284 594.236C743.432 606.864 748.205 621.381 748.602 637.787H704.156Z" fill="white"/>
<path d="M45.5582 863L45.5582 557.545H91.6449V703.412H95.3736L223.491 557.545H281.51L158.314 695.06L281.957 863H226.474L127.739 726.53L91.6449 767.993V863H45.5582Z" fill="white"/>
<path d="M1275.05 413.264V474H1240.19V307.507H1275.05V383.014L1350.08 307.507H1390.73L1319.59 377.933L1396.52 474H1355.4L1295.61 397.548L1275.05 413.264ZM1576.96 389.985C1576.96 407.316 1573.45 422.48 1566.44 435.479C1559.51 448.398 1549.7 458.442 1537.02 465.61C1524.41 472.779 1509.6 476.363 1492.59 476.363C1475.18 476.363 1460.21 472.897 1447.68 465.965C1435.16 458.954 1425.55 448.989 1418.85 436.069C1412.16 423.15 1408.81 407.789 1408.81 389.985C1408.81 372.182 1412.12 356.939 1418.73 344.256C1425.43 331.573 1435.04 321.883 1447.57 315.188C1460.17 308.413 1475.26 305.025 1492.82 305.025C1510.47 305.025 1525.55 308.452 1538.08 315.306C1550.61 322.08 1560.22 331.809 1566.91 344.492C1573.61 357.175 1576.96 372.34 1576.96 389.985ZM1541.39 389.985C1541.39 372.024 1537.13 357.963 1528.63 347.801C1520.12 337.56 1508.18 332.439 1492.82 332.439C1477.23 332.439 1465.17 337.521 1456.67 347.683C1448.16 357.766 1443.9 371.867 1443.9 389.985C1443.9 402.117 1445.87 412.594 1449.81 421.417C1453.75 430.24 1459.34 437.054 1466.59 441.859C1473.92 446.586 1482.58 448.949 1492.59 448.949C1508.18 448.949 1520.2 443.829 1528.63 433.588C1537.13 423.347 1541.39 408.813 1541.39 389.985ZM1638.28 410.782V474H1603.42V307.507H1686.61C1706.46 307.507 1721.79 311.8 1732.58 320.387C1743.37 328.895 1748.77 341.144 1748.77 357.136C1748.77 368.795 1745.46 378.878 1738.84 387.386C1732.22 395.815 1723.28 401.368 1712.02 404.047L1757.04 474H1717.81L1679.17 410.782H1638.28ZM1713.67 358.554C1713.67 350.597 1711.11 344.61 1705.99 340.593C1700.87 336.575 1693.19 334.566 1682.95 334.566H1638.28V383.723H1683.89C1693.66 383.723 1701.07 381.517 1706.11 377.105C1711.15 372.694 1713.67 366.51 1713.67 358.554ZM1914.08 447.059V474H1778.31V307.507H1909.23V334.448H1813.17V376.278H1902.03V403.22H1813.17V447.059H1914.08ZM1979.19 431.461L1964.42 474H1929.56L1990.29 307.507H2031.42L2091.92 474H2057.41L2042.64 431.461H1979.19ZM2010.85 333.148C2010.07 336.299 2008.96 340.081 2007.55 344.492C2006.13 348.904 2005.1 352.015 2004.47 353.827L1986.99 405.229H2034.84L2016.88 352.764C2015.78 349.534 2014.75 346.265 2013.81 342.956C2012.86 339.647 2011.88 336.378 2010.85 333.148ZM1275.05 611.507V778H1240.19V611.507H1275.05ZM1338.5 679.806V778H1307.54V611.507H1347.36L1420.98 740.778C1419.56 728.804 1418.85 717.973 1418.85 708.283V611.507H1449.81V778H1408.93L1336.37 649.792C1337.08 656.015 1337.6 661.648 1337.91 666.689C1338.3 671.652 1338.5 676.024 1338.5 679.806ZM1557.58 638.448V778H1522.72V638.448H1468.95V611.507H1611.46V638.448H1557.58ZM1766.14 751.059V778H1630.37V611.507H1761.29V638.448H1665.22V680.278H1754.08V707.22H1665.22V751.059H1766.14ZM1826.64 714.782V778H1791.78V611.507H1874.97C1894.82 611.507 1910.14 615.8 1920.93 624.387C1931.72 632.895 1937.12 645.144 1937.12 661.136C1937.12 672.795 1933.81 682.878 1927.19 691.386C1920.58 699.815 1911.64 705.368 1900.37 708.047L1945.39 778H1906.16L1867.52 714.782H1826.64ZM1902.03 662.554C1902.03 654.597 1899.47 648.61 1894.34 644.593C1889.22 640.575 1881.54 638.566 1871.3 638.566H1826.64V687.723H1872.25C1882.02 687.723 1889.42 685.517 1894.46 681.105C1899.5 676.694 1902.03 670.51 1902.03 662.554ZM1997.62 679.806V778H1966.66V611.507H2006.48L2080.1 740.778C2078.68 728.804 2077.97 717.973 2077.97 708.283V611.507H2108.93V778H2068.05L1995.49 649.792C1996.2 656.015 1996.71 661.648 1997.03 666.689C1997.42 671.652 1997.62 676.024 1997.62 679.806ZM2181.01 735.461L2166.24 778H2131.38L2192.12 611.507H2233.24L2293.74 778H2259.24L2244.46 735.461H2181.01ZM2212.68 637.148C2211.89 640.299 2210.79 644.081 2209.37 648.492C2207.95 652.904 2206.93 656.015 2206.3 657.827L2188.81 709.229H2236.67L2218.71 656.764C2217.6 653.534 2216.58 650.265 2215.63 646.956C2214.69 643.647 2213.7 640.378 2212.68 637.148ZM2373.62 638.448V778H2338.76V638.448H2285V611.507H2427.5V638.448H2373.62ZM2481.27 611.507V778H2446.41V611.507H2481.27ZM2675.65 693.985C2675.65 711.316 2672.14 726.48 2665.13 739.479C2658.2 752.398 2648.39 762.442 2635.71 769.61C2623.1 776.779 2608.29 780.363 2591.28 780.363C2573.87 780.363 2558.9 776.897 2546.37 769.965C2533.85 762.954 2524.24 752.989 2517.54 740.069C2510.85 727.15 2507.5 711.789 2507.5 693.985C2507.5 676.182 2510.81 660.939 2517.42 648.256C2524.12 635.573 2533.73 625.883 2546.26 619.188C2558.86 612.413 2573.95 609.025 2591.51 609.025C2609.16 609.025 2624.24 612.452 2636.77 619.306C2649.29 626.08 2658.91 635.809 2665.6 648.492C2672.3 661.175 2675.65 676.34 2675.65 693.985ZM2640.08 693.985C2640.08 676.024 2635.82 661.963 2627.32 651.801C2618.81 641.56 2606.87 636.439 2591.51 636.439C2575.92 636.439 2563.86 641.521 2555.35 651.683C2546.85 661.766 2542.59 675.867 2542.59 693.985C2542.59 706.117 2544.56 716.594 2548.5 725.417C2552.44 734.24 2558.03 741.054 2565.28 745.859C2572.61 750.586 2581.27 752.949 2591.28 752.949C2606.87 752.949 2618.89 747.829 2627.32 737.588C2635.82 727.347 2640.08 712.813 2640.08 693.985ZM2733.07 679.806V778H2702.11V611.507H2741.94L2815.55 740.778C2814.13 728.804 2813.42 717.973 2813.42 708.283V611.507H2844.38V778H2803.5L2730.95 649.792C2731.66 656.015 2732.17 661.648 2732.48 666.689C2732.88 671.652 2733.07 676.024 2733.07 679.806ZM2916.46 735.461L2901.69 778H2866.83L2927.57 611.507H2968.69L3029.19 778H2994.69L2979.92 735.461H2916.46ZM2948.13 637.148C2947.34 640.299 2946.24 644.081 2944.82 648.492C2943.41 652.904 2942.38 656.015 2941.75 657.827L2924.26 709.229H2972.12L2954.16 656.764C2953.06 653.534 2952.03 650.265 2951.09 646.956C2950.14 643.647 2949.16 640.378 2948.13 637.148ZM3176.07 751.059V778H3051.88V611.507H3086.74V751.059H3176.07ZM1375.96 1034.03C1375.96 1050.33 1369.89 1062.82 1357.76 1071.48C1345.71 1080.07 1327.98 1084.36 1304.59 1084.36C1262.44 1084.36 1237.9 1069.12 1230.97 1038.63L1264.65 1033.08C1266.93 1041.9 1271.38 1048.32 1278 1052.34C1284.62 1056.28 1293.8 1058.25 1305.53 1058.25C1317.74 1058.25 1326.88 1056.4 1332.95 1052.7C1339.01 1048.99 1342.05 1043.44 1342.05 1036.03C1342.05 1031.31 1340.67 1027.41 1337.91 1024.34C1335.15 1021.26 1331.21 1018.7 1326.09 1016.66C1323.57 1015.63 1319.87 1014.53 1314.99 1013.35C1310.1 1012.09 1304.04 1010.71 1296.79 1009.21C1288.44 1007.24 1281.9 1005.59 1277.17 1004.25C1272.45 1002.83 1268.67 1001.49 1265.83 1000.23C1262.99 998.891 1260.24 997.434 1257.56 995.858C1251.65 992.313 1247.04 987.587 1243.73 981.679C1240.42 975.771 1238.77 968.405 1238.77 959.582C1238.77 944.536 1244.4 933.035 1255.67 925.078C1267.01 917.043 1283.48 913.025 1305.06 913.025C1325.7 913.025 1341.18 916.255 1351.5 922.715C1361.9 929.174 1368.59 939.849 1371.59 954.737L1337.79 959.346C1336.06 952.177 1332.51 946.781 1327.16 943.157C1321.88 939.534 1314.28 937.722 1304.35 937.722C1293.8 937.722 1285.88 939.376 1280.6 942.685C1275.32 945.993 1272.68 950.956 1272.68 957.573C1272.68 961.906 1273.79 965.451 1275.99 968.208C1278.28 970.965 1281.62 973.328 1286.04 975.298C1290.21 977.188 1299.15 979.591 1312.86 982.506C1320.82 984.239 1327.67 985.893 1333.42 987.469C1339.17 988.965 1343.78 990.423 1347.25 991.841C1350.71 993.338 1353.78 994.913 1356.46 996.567C1359.22 998.222 1361.58 999.994 1363.55 1001.88C1367.57 1005.74 1370.64 1010.35 1372.77 1015.71C1374.9 1020.99 1375.96 1027.09 1375.96 1034.03ZM1479.35 1056.95C1500.46 1056.95 1515.08 1046.39 1523.19 1025.28L1553.56 1036.74C1547.02 1052.81 1537.41 1064.79 1524.73 1072.67C1512.12 1080.46 1497 1084.36 1479.35 1084.36C1461.55 1084.36 1446.38 1080.98 1433.86 1074.2C1421.33 1067.35 1411.76 1057.46 1405.15 1044.54C1398.61 1031.62 1395.34 1016.1 1395.34 997.985C1395.34 979.709 1398.49 964.269 1404.79 951.665C1411.09 939.061 1420.39 929.49 1432.68 922.951C1444.97 916.334 1460.01 913.025 1477.82 913.025C1497.35 913.025 1513.27 916.964 1525.55 924.842C1537.84 932.641 1546.47 944.142 1551.43 959.346L1520.71 967.735C1518.11 959.385 1512.99 952.768 1505.35 947.884C1497.79 942.921 1488.85 940.439 1478.53 940.439C1462.77 940.439 1450.8 945.324 1442.6 955.092C1434.49 964.86 1430.43 979.158 1430.43 997.985C1430.43 1010.75 1432.28 1021.5 1435.99 1030.24C1439.77 1038.99 1445.28 1045.64 1452.53 1050.21C1459.86 1054.7 1468.8 1056.95 1479.35 1056.95ZM1611.34 1010.63V1082H1576.48V915.507H1611.34V981.797H1683.89V915.507H1718.75V1082H1683.89V1010.63H1611.34ZM1913.25 997.985C1913.25 1015.32 1909.75 1030.48 1902.73 1043.48C1895.8 1056.4 1885.99 1066.44 1873.31 1073.61C1860.71 1080.78 1845.9 1084.36 1828.88 1084.36C1811.47 1084.36 1796.5 1080.9 1783.98 1073.96C1771.45 1066.95 1761.84 1056.99 1755.15 1044.07C1748.45 1031.15 1745.1 1015.79 1745.1 997.985C1745.1 980.182 1748.41 964.939 1755.03 952.256C1761.73 939.573 1771.34 929.883 1783.86 923.188C1796.47 916.413 1811.55 913.025 1829.12 913.025C1846.76 913.025 1861.85 916.452 1874.38 923.306C1886.9 930.08 1896.51 939.809 1903.21 952.492C1909.9 965.175 1913.25 980.34 1913.25 997.985ZM1877.68 997.985C1877.68 980.024 1873.43 965.963 1864.92 955.801C1856.41 945.56 1844.48 940.439 1829.12 940.439C1813.52 940.439 1801.47 945.521 1792.96 955.683C1784.45 965.766 1780.2 979.867 1780.2 997.985C1780.2 1010.12 1782.17 1020.59 1786.11 1029.42C1790.05 1038.24 1795.64 1045.05 1802.89 1049.86C1810.21 1054.59 1818.88 1056.95 1828.88 1056.95C1844.48 1056.95 1856.49 1051.83 1864.92 1041.59C1873.43 1031.35 1877.68 1016.81 1877.68 997.985ZM2101.6 997.985C2101.6 1015.32 2098.1 1030.48 2091.09 1043.48C2084.16 1056.4 2074.35 1066.44 2061.67 1073.61C2049.06 1080.78 2034.25 1084.36 2017.24 1084.36C1999.83 1084.36 1984.86 1080.9 1972.33 1073.96C1959.81 1066.95 1950.2 1056.99 1943.5 1044.07C1936.81 1031.15 1933.46 1015.79 1933.46 997.985C1933.46 980.182 1936.77 964.939 1943.38 952.256C1950.08 939.573 1959.69 929.883 1972.21 923.188C1984.82 916.413 1999.9 913.025 2017.47 913.025C2035.12 913.025 2050.2 916.452 2062.73 923.306C2075.25 930.08 2084.86 939.809 2091.56 952.492C2098.26 965.175 2101.6 980.34 2101.6 997.985ZM2066.04 997.985C2066.04 980.024 2061.78 965.963 2053.28 955.801C2044.77 945.56 2032.83 940.439 2017.47 940.439C2001.87 940.439 1989.82 945.521 1981.31 955.683C1972.81 965.766 1968.55 979.867 1968.55 997.985C1968.55 1010.12 1970.52 1020.59 1974.46 1029.42C1978.4 1038.24 1983.99 1045.05 1991.24 1049.86C1998.57 1054.59 2007.23 1056.95 2017.24 1056.95C2032.83 1056.95 2044.85 1051.83 2053.28 1041.59C2061.78 1031.35 2066.04 1016.81 2066.04 997.985ZM2252.26 1055.06V1082H2128.07V915.507H2162.93V1055.06H2252.26Z" fill="white"/>
</g>
<defs>
<clipPath id="clip0_1_46">
<rect width="3275.91" height="1129.92" fill="white"/>
</clipPath>
</defs>
</svg>
